PathFileType	4	(X/Y/Z)	/Users/itak/Documents/Research/Walk-IL/dataset/trc/00030_00004.trc
DataRate	CameraRate	NumFrames	NumMarkers	Units	OrigDataRate	OrigDataStartFrame	OrigNumFrames
100.000000	100.000000	4	53	mm	100.000000	573	764
Frame#	Time	RPSI			LPSI			L3			STRN			T10			C7			CLAV			RBAK			LBAK			LSHO			LUPA			LAEL			LAOL			LWTS			LWPS			LFRA			LIFD			LHPS			LHTS			RSHO			RUPA			RAEL			RAOL			RWTS			RWPS			RFRA			RIFD			RHTS			RHPS			RBHD			LFHD			RFHD			LBHD			LHIP			RHIP			RASI			LASI			LKNE			LTHI			LANK			LTIP			LTOE			LMT1			LMT5			LHEE			RKNE			RTHI			RANK			RTIP			RTOE			RMT1			RMT5			RHEE			
		X1	Y1	Z1	X2	Y2	Z2	X3	Y3	Z3	X4	Y4	Z4	X5	Y5	Z5	X6	Y6	Z6	X7	Y7	Z7	X8	Y8	Z8	X9	Y9	Z9	X10	Y10	Z10	X11	Y11	Z11	X12	Y12	Z12	X13	Y13	Z13	X14	Y14	Z14	X15	Y15	Z15	X16	Y16	Z16	X17	Y17	Z17	X18	Y18	Z18	X19	Y19	Z19	X20	Y20	Z20	X21	Y21	Z21	X22	Y22	Z22	X23	Y23	Z23	X24	Y24	Z24	X25	Y25	Z25	X26	Y26	Z26	X27	Y27	Z27	X28	Y28	Z28	X29	Y29	Z29	X30	Y30	Z30	X31	Y31	Z31	X32	Y32	Z32	X33	Y33	Z33	X34	Y34	Z34	X35	Y35	Z35	X36	Y36	Z36	X37	Y37	Z37	X38	Y38	Z38	X39	Y39	Z39	X40	Y40	Z40	X41	Y41	Z41	X42	Y42	Z42	X43	Y43	Z43	X44	Y44	Z44	X45	Y45	Z45	X46	Y46	Z46	X47	Y47	Z47	X48	Y48	Z48	X49	Y49	Z49	X50	Y50	Z50	X51	Y51	Z51	X52	Y52	Z52	X53	Y53	Z53	

574	5.73	940.50390625	1030.8466796875	533.2074584960938	1087.443725585938	1033.376220703125	604.4462890625	1023.872375488281	1095.021362304688	566.8616943359375	885.5206909179688	1274.843383789062	755.2117309570312	1031.887451171875	1238.941528320312	545.5118408203125	987.1179809570312	1503.683959960938	594.9729614257812	900.3992919921875	1401.32666015625	719.06396484375	968.2103271484375	1363.102294921875	503.8972473144531	1081.007568359375	1474.976684570312	636.6187133789062	1079.0625	1480.121215820312	762.0966186523438	1178.04541015625	1370.403686523438	782.4276123046875	1236.603271484375	1162.289184570312	802.3246459960938	1202.480712890625	1140.463256835938	703.5693359375	1148.84765625	911.4744262695312	854.6400146484375	1234.338134765625	897.5189819335938	834.6419067382812	1241.8525390625	1048.603881835938	827.3960571289062	1126.119995117188	723.070068359375	882.5556640625	1213.705200195312	809.7261352539062	868.0736694335938	1147.121215820312	819.9562377929688	889.81884765625	803.9884033203125	1465.59716796875	554.2662963867188	765.6383056640625	1394.026123046875	498.5011596679688	801.5846557617188	1137.386474609375	426.2220764160156	877.0655517578125	1113.149047851562	487.8251037597656	773.9928588867188	863.1890869140625	522.20068359375	764.9837036132812	855.6784057617188	428.4270935058594	789.823974609375	1060.310668945312	419.6482238769531	804.3655395507812	678.2238159179688	532.1117553710938	760.162109375	749.6217041015625	530.3236694335938	754.9154663085938	749.8590698242188	454.2917175292969	941.2099609375	1690.021362304688	719.6171875	731.7076416015625	1631.56640625	696.4140625	777.0693359375	1645.500854492188	783.4572143554688	871.204345703125	1665.086791992188	596.0848388671875	1150.936645507812	934.2415161132812	732.2023315429688	802.3584594726562	917.3900146484375	598.90869140625	826.44921875	950.6029663085938	719.8310546875	1040.537109375	973.1153564453125	815.8534545898438	1172.87744140625	489.3870849609375	711.014892578125	1180.587890625	635.8858032226562	715.7689208984375	1351.307373046875	128.0672149658203	382.2251892089844	1284.172485351562	327.669921875	537.0935668945312	1211.523681640625	25.25865173339844	507.1662292480469	1219.716918945312	54.70383453369141	461.1705932617188	1325.24267578125	41.8155632019043	469.3869018554688	1328.2587890625	182.6156158447266	320.4580688476562	767.882568359375	519.9679565429688	754.436767578125	771.5951538085938	767.0834350585938	648.3129272460938	841.0563354492188	34.74667739868164	807.4044189453125	773.0044555664062	390.2252197265625	771.0604858398438	679.5180053710938	46.58900451660156	975.3196411132812	747.8594360351562	48.09433746337891	964.0853881835938	709.5779418945312	41.08555221557617	875.46240234375	911.0819702148438	35.11861801147461	812.29150390625	
575	5.74	934.83740234375	1032.54931640625	540.7947998046875	1081.021240234375	1034.955810546875	613.6129150390625	1017.736633300781	1096.697021484375	575.2470703125	877.4085083007812	1276.646606445312	762.245361328125	1025.769287109375	1240.505981445312	553.9060668945312	980.617431640625	1505.2763671875	602.573974609375	892.7276611328125	1403.064331054688	726.0252685546875	962.3875122070312	1364.591430664062	511.5474853515625	1074.046508789062	1476.685668945312	645.1299438476562	1070.915405273438	1481.9873046875	770.6142578125	1169.800537109375	1372.336547851562	791.6600952148438	1228.57080078125	1164.189575195312	810.9080810546875	1195.071166992188	1143.000122070312	711.847412109375	1143.0859375	911.58642578125	859.876708984375	1228.775024414062	898.9356079101562	840.0173950195312	1234.723999023438	1050.226806640625	834.7858276367188	1122.427001953125	722.5147094726562	884.8961791992188	1209.0556640625	810.4251098632812	872.0206909179688	1142.302001953125	819.56689453125	893.7092895507812	797.826904296875	1467.352783203125	560.3566284179688	759.733154296875	1395.6943359375	504.4393310546875	794.9635009765625	1138.375244140625	433.5505676269531	870.1556396484375	1114.347045898438	495.5681457519531	765.1970825195312	865.5135498046875	532.5608520507812	756.6853637695312	856.9141235351562	438.8711242675781	782.8063354492188	1061.189819335938	427.7474365234375	793.9977416992188	680.5892944335938	544.9888916015625	750.4539184570312	752.1845092773438	542.0057373046875	745.7498779296875	751.447265625	465.9768981933594	933.410888671875	1691.730834960938	726.481201171875	724.178466796875	1633.091918945312	701.9766235351562	768.9258422851562	1647.113891601562	789.3290405273438	864.2392578125	1666.615966796875	602.5233154296875	1142.760375976562	935.5046997070312	742.4404907226562	795.9882202148438	918.8253784179688	604.731689453125	818.5086059570312	952.25341796875	725.8818969726562	1031.35595703125	974.8053588867188	824.3578491210938	1163.168212890625	488.9507446289062	727.7081909179688	1171.389526367188	636.0804443359375	730.5242919921875	1349.32275390625	137.7079772949219	391.7408447265625	1277.95849609375	331.1485290527344	551.7595825195312	1210.561889648438	24.33358955383301	509.3104553222656	1218.273803710938	57.24740600585938	465.3706665039062	1323.814086914062	47.28679275512695	474.6229248046875	1326.154663085938	194.0328826904297	332.1229858398438	763.5404663085938	520.22265625	759.7276611328125	765.8547973632812	767.8335571289062	654.2778930664062	840.9195556640625	35.05422592163086	807.8385620117188	769.6278076171875	390.4236450195312	775.3591918945312	679.3360595703125	44.63695526123047	976.4267578125	747.7516479492188	46.86948776245117	965.0045776367188	709.4447021484375	40.88196182250977	876.40625	910.8905029296875	35.39996719360352	812.487548828125	
576	5.75	929.1795043945312	1034.173706054688	548.212646484375	1074.6142578125	1036.45166015625	622.52294921875	1011.607055664062	1098.340454101562	583.4319458007812	869.4144897460938	1278.401245117188	769.0590209960938	1019.71337890625	1242.076293945312	562.119384765625	974.2489013671875	1506.874755859375	610.0966186523438	885.1826171875	1404.772216796875	732.8583984375	956.689697265625	1366.122924804688	519.0552368164062	1067.207885742188	1478.3583984375	653.5625610351562	1062.872436523438	1483.770263671875	779.0466918945312	1161.629028320312	1374.164306640625	800.8433837890625	1220.601196289062	1165.977172851562	819.5244750976562	1187.820434570312	1145.432373046875	720.1376342773438	1137.26513671875	911.637939453125	865.0531005859375	1223.194946289062	900.3128051757812	845.504638671875	1227.599487304688	1051.764770507812	842.2328491210938	1118.657348632812	722.0397338867188	887.082275390625	1204.325805664062	811.1049194335938	876.0271606445312	1137.416748046875	819.1801147460938	897.553466796875	791.8103637695312	1469.125	566.34375	753.97509765625	1397.417724609375	510.2252807617188	788.474853515625	1139.460571289062	440.6026000976562	863.3753662109375	1115.602661132812	502.9950256347656	756.336181640625	868.0726928710938	542.7578735351562	748.3685913085938	858.2845458984375	449.1916809082031	775.9033813476562	1062.166137695312	435.5487976074219	783.3040161132812	683.2451782226562	557.9568481445312	740.4877319335938	755.0563354492188	553.626708984375	736.4349975585938	753.2369995117188	477.6312561035156	925.7388305664062	1693.412109375	733.3075561523438	716.7777099609375	1634.6005859375	707.421630859375	760.8842163085938	1648.69873046875	795.1001586914062	857.4481201171875	1668.140625	608.8981323242188	1134.603881835938	936.6937255859375	752.4545288085938	789.6428833007812	920.1578369140625	610.43310546875	810.634765625	953.8380737304688	731.7750244140625	1022.27001953125	976.5009155273438	832.6272583007812	1152.794555664062	488.5045471191406	744.5396728515625	1161.8076171875	636.2029418945312	745.3814086914062	1346.895629882812	147.6328582763672	402.0970764160156	1271.15087890625	334.5744323730469	566.9498901367188	1209.357421875	23.6817626953125	512.2047119140625	1216.480224609375	60.19696807861328	470.3677673339844	1322.026733398438	53.51002883911133	480.8919372558594	1323.523803710938	205.4856109619141	344.4924011230469	759.4586181640625	520.3685913085938	764.7562866210938	760.2627563476562	768.5122680664062	660.1527709960938	840.8152465820312	35.30405426025391	808.2112426757812	766.4783935546875	390.562255859375	779.3662719726562	679.19775390625	43.00286483764648	977.3788452148438	747.6823120117188	45.83860778808594	965.8101196289062	709.3424682617188	40.72892379760742	877.2422485351562	910.7315673828125	35.63238906860352	812.6605224609375	
577	5.76	923.5742797851562	1035.739990234375	555.4649047851562	1068.25439453125	1037.863891601562	631.2234497070312	1005.528869628906	1099.943603515625	591.4335327148438	861.5623168945312	1280.09765625	775.6538696289062	1013.744506835938	1243.639892578125	570.1596069335938	968.0139770507812	1508.467041015625	617.533447265625	877.7777709960938	1406.440551757812	739.557861328125	951.1282958984375	1367.679565429688	526.4180297851562	1060.503784179688	1479.983642578125	661.8978271484375	1054.960083007812	1485.456909179688	787.3762817382812	1153.550903320312	1375.86767578125	809.9427490234375	1212.696411132812	1167.632934570312	828.146484375	1180.729736328125	1147.730224609375	728.417236328125	1131.394897460938	911.6678466796875	870.2108154296875	1217.593994140625	901.6337890625	851.1268920898438	1220.477783203125	1053.199951171875	849.7275390625	1114.785888671875	721.6305541992188	889.1970825195312	1199.50830078125	811.7593383789062	880.14111328125	1132.447875976562	818.79736328125	901.3951416015625	785.947998046875	1470.896484375	572.2239990234375	748.3804321289062	1399.17578125	515.8596801757812	782.1378173828125	1140.622436523438	447.372802734375	856.7492065429688	1116.89453125	510.1082763671875	747.4589233398438	870.8475341796875	552.7650146484375	740.0510864257812	859.7782592773438	459.3721008300781	769.1347045898438	1063.226928710938	443.0450744628906	772.3787231445312	686.1680297851562	570.9578857421875	730.3073120117188	758.2273559570312	565.14013671875	727.002685546875	755.225830078125	489.221923828125	918.2023315429688	1695.055297851562	740.0984497070312	709.5153198242188	1636.077880859375	712.745361328125	752.96142578125	1650.241333007812	800.7762451171875	850.8397827148438	1669.654052734375	615.2113037109375	1126.517333984375	937.8011474609375	762.2825317382812	783.3812255859375	921.4287109375	616.0133056640625	802.862060546875	955.3607177734375	737.5214233398438	1013.304138183594	978.1768798828125	840.6776123046875	1141.768920898438	488.0902404785156	761.3717041015625	1151.854125976562	636.2789306640625	760.247314453125	1343.97509765625	157.6114349365234	413.333251953125	1263.751098632812	337.9201354980469	582.562744140625	1207.860473632812	23.54645729064941	516.15673828125	1214.305053710938	63.52174758911133	476.3456726074219	1319.795043945312	60.31867599487305	488.4117736816406	1320.326538085938	216.7009429931641	357.5075988769531	755.5806274414062	520.4312744140625	769.5009765625	754.7954711914062	769.1685180664062	665.8960571289062	840.732421875	35.50089645385742	808.5078735351562	763.499755859375	390.6492614746094	783.0730590820312	679.108154296875	41.6915283203125	978.166748046875	747.6372680664062	44.99698638916016	966.4778442382812	709.2658081054688	40.60356521606445	877.9482421875	910.6034545898438	35.82211303710938	812.80419921875	
